<svg xmlns="http://www.w3.org/2000/svg" width="900" height="520" viewBox="0 0 900 520">
  <rect width="100%" height="100%" fill="#f5f5f5" />
  <circle cx="170" cy="140" r="26" fill="#4c78a8" />
  <circle cx="280" cy="210" r="18" fill="#72b7b2" />
  <circle cx="380" cy="120" r="22" fill="#f58518" />
  <circle cx="510" cy="190" r="28" fill="#54a24b" />
  <circle cx="640" cy="120" r="20" fill="#e45756" />
  <circle cx="720" cy="240" r="16" fill="#b279a2" />
  <circle cx="560" cy="330" r="24" fill="#ff9da6" />
  <circle cx="420" cy="300" r="18" fill="#9d755d" />
  <circle cx="250" cy="320" r="20" fill="#edc949" />
  <circle cx="120" cy="280" r="14" fill="#bab0ac" />
  <line x1="170" y1="140" x2="280" y2="210" stroke="#999" stroke-width="2" />
  <line x1="170" y1="140" x2="380" y2="120" stroke="#999" stroke-width="2" />
  <line x1="280" y1="210" x2="420" y2="300" stroke="#999" stroke-width="2" />
  <line x1="380" y1="120" x2="510" y2="190" stroke="#999" stroke-width="2" />
  <line x1="510" y1="190" x2="640" y2="120" stroke="#999" stroke-width="2" />
  <line x1="510" y1="190" x2="720" y2="240" stroke="#999" stroke-width="2" />
  <line x1="420" y1="300" x2="560" y2="330" stroke="#999" stroke-width="2" />
  <line x1="560" y1="330" x2="720" y2="240" stroke="#999" stroke-width="2" />
  <line x1="250" y1="320" x2="420" y2="300" stroke="#999" stroke-width="2" />
  <line x1="120" y1="280" x2="250" y2="320" stroke="#999" stroke-width="2" />
  <text x="450" y="480" font-family="Arial, sans-serif" font-size="20" text-anchor="middle" fill="#666">Protein network example (placeholder)</text>
</svg>
